{"title":"Nightwatching (Peter Greenaway, 2007) (720p)","uid":9174364,"size":7035134003,"categoryP":"video","categoryS":"hd___movies","magnet":"?xt=urn:btih:15ac93b36f57824aea4b6381481a1148fc9514fd&amp;dn=Nightwatching+%28Peter+Greenaway%2C+2007%29+%28720p%29&amp;tr=udp%3A%2F%2Ftracker.openbittorrent.com%3A80&amp;tr=udp%3A%2F%2Fopen.demonii.com%3A1337&amp;tr=udp%3A%2F%2Ftracker.coppersurfer.tk%3A6969&amp;tr=udp%3A%2F%2Fexodus.desync.com%3A6969","seeders":2,"leechers":2,"uploader":"moonflux","files":2,"time":1384122746,"description":"The year 1642 marks the turning point in the life of the famous Dutch painter, Rembrandt, turning him from a wealthy respected celebrity into a discredited pauper. At the insistence of his pregnant wife Saskia, Rembrandt has reluctantly agreed to paint the Amsterdam Musketeer Militia in a group portrait that will later become to be known as The Nightwatch. He soon discovers that there is a conspiracy afoot with the Amsterdam merchants playing at soldiers maneuvering for financial advantage and personal power in, that time, the richest city in the Western World. Rembrandt stumbles on a foul murder. Confident in the birth of a longed-for son and heir, Rembrandt is determined to expose the conspiring murderers and builds his accusation meticulously in the form of the commissioned painting, uncovering the seamy and hypocritical side to Dutch Society in the Golden Age. \n\nGeneral\nUnique ID                                : 201083291348403644481694679475880877629 (0x97473BB3CE8774F9B62A3293A1065E3D)\nComplete name                            : saimorny-nw.720p.rerip.mkv\nFormat                                   : Matroska\nFormat version                           : Version 2\nFile size                                : 6.55 GiB\nDuration                                 : 2h 15mn\nOverall bit rate                         : 6 927 Kbps\nEncoded date                             : UTC 2010-11-29 18:03:29\nWriting application                      : mkvmerge v4.1.1 ('Bouncin' Back') built on Jul  3 2010 22:54:08\nWriting library                          : libebml v1.0.0 + libmatroska v1.0.0\n\nVideo\nID                                       : 1\nFormat                                   : AVC\nFormat/Info                              : Advanced Video Codec\nFormat profile                           : &lt;a class=&quot;__cf_email__&quot; href=&quot;/cdn-cgi/l/email-protection&quot; data-cfemail=&quot;521a3b353a121e667c63&quot;&gt;[email&amp;#160;protected]&lt;/a&gt;&lt;script cf-hash='f9e31' type=&quot;text/javascript&quot;&gt;\n/* &lt;![CDATA[ */!function(){try{var t=&quot;currentScript&quot;in document?document.currentScript:function(){for(var t=document.getElementsByTagName(&quot;script&quot;),e=t.length;e--;)if(t[e].getAttribute(&quot;cf-hash&quot;))return t[e]}();if(t&amp;&amp;t.previousSibling){var e,r,n,i,c=t.previousSibling,a=c.getAttribute(&quot;data-cfemail&quot;);if(a){for(e=&quot;&quot;,r=parseInt(a.substr(0,2),16),n=2;a.length-n;n+=2)i=parseInt(a.substr(n,2),16)^r,e+=String.fromCharCode(i);e=document.createTextNode(e),c.parentNode.replaceChild(e,c)}}}catch(u){}}();/* ]]&gt; */&lt;/script&gt;\nFormat settings, CABAC                   : Yes\nFormat settings, ReFrames                : 4 frames\nCodec ID                                 : V_MPEG4/ISO/AVC\nDuration                                 : 2h 15mn\nBit rate                                 : 6 160 Kbps\nWidth                                    : 1 280 pixels\nHeight                                   : 544 pixels\nDisplay aspect ratio                     : 2.35:1\nFrame rate mode                          : Constant\nFrame rate                               : 25.000 fps\nColor space                              : YUV\nChroma subsampling                       : 4:2:0\nBit depth                                : 8 bits\nScan type                                : Progressive\nBits/(Pixel*Frame)                       : 0.354\nStream size                              : 5.71 GiB (87%)\nWriting library                          : x264 core 110 r1804 e89c4cf\nEncoding settings                        : cabac=1 // deblock=1:0:0 / analyse=0x3:0x113 / me=umh / subme=7 / psy=1 / psy_rd=1.00:0.00 // me_range=16 / chroma_me=1 / trellis=1 / 8x8dct=1 / cqm=0 / deadzone=21,11 / fast_pskip=0 / chroma_qp_offset=-2 / threads=6 / sliced_threads=0 / nr=0 / decimate=0 / interlaced=0 / constrained_intra=0 / bframes=3 / b_pyramid=1 / b_adapt=1 / b_bias=0 / direct=1 / weightb=1 / open_gop=0 / weightp=2 / keyint=250 / keyint_min=25 / scenecut=40 / intra_refresh=0 / rc=2pass / mbtree=0 / bitrate=6160 / ratetol=1.0 / qcomp=0.60 / qpmin=0 / qpmax=51 / qpstep=4 / cplxblur=20.0 / qblur=0.5 / ip_ratio=1.40 / pb_ratio=1.30 / aq=1:1.00\nLanguage                                 : English\nDefault                                  : No\nForced                                   : No\n\nAudio\nID                                       : 2\nFormat                                   : DTS\nFormat/Info                              : Digital Theater Systems\nMuxing mode                              : Header stripping\nCodec ID                                 : A_DTS\nDuration                                 : 2h 15mn\nBit rate mode                            : Constant\nBit rate                                 : 755 Kbps\nChannel(s)                               : 6 channels\nChannel positions                        : Front: L C R, Side: L R, LFE\nSampling rate                            : 48.0 KHz\nBit depth                                : 24 bits\nCompression mode                         : Lossy\nStream size                              : 731 MiB (11%)\nLanguage                                 : English\nDefault                                  : Yes\nForced                                   : No\n\n","torrent":{"xt":"urn:btih:15ac93b36f57824aea4b6381481a1148fc9514fd","amp;dn":"Nightwatching+%28Peter+Greenaway%2C+2007%29+%28720p%29","amp;tr":["udp%3A%2F%2Ftracker.openbittorrent.com%3A80","udp%3A%2F%2Fopen.demonii.com%3A1337","udp%3A%2F%2Ftracker.coppersurfer.tk%3A6969","udp%3A%2F%2Fexodus.desync.com%3A6969"],"infoHash":"15ac93b36f57824aea4b6381481a1148fc9514fd","infoHashBuffer":{"type":"Buffer","data":[21,172,147,179,111,87,130,74,234,75,99,129,72,26,17,72,252,149,20,253]},"announce":[],"urlList":[]}}